<svg width="30" height="30" viewBox="0 0 30 30" fill="none" xmlns="http://www.w3.org/2000/svg">
<path d="M21.225 9.90089e-06C22.3961 -0.0404237 23.5631 0.158183 24.6548 0.58371C25.7466 1.00924 26.7402 1.65276 27.575 2.47501C28.3797 3.30977 29.0089 4.29737 29.4254 5.37945C29.842 6.46153 30.0373 7.61613 30 8.77501V21.225C30 23.825 29.15 26.0625 27.525 27.6375C25.8011 29.229 23.5199 30.0778 21.175 30H8.82501C6.4997 30.072 4.24001 29.223 2.53751 27.6375C1.69357 26.7922 1.03273 25.7822 0.596169 24.6704C0.159608 23.5585 -0.0433279 22.3687 5.2196e-06 21.175V8.77501C5.2196e-06 3.50001 3.50001 9.90089e-06 8.77501 9.90089e-06H21.225ZM21.2875 2.78751H8.82501C7.01251 2.78751 5.45001 3.32501 4.41251 4.35001C3.85812 4.94049 3.42849 5.63669 3.14928 6.39699C2.87008 7.15729 2.74703 7.96608 2.78751 8.77501V21.175C2.78751 23.05 3.32501 24.55 4.41251 25.65C5.6254 26.7228 7.2073 27.2829 8.82501 27.2125H21.175C22.7927 27.2829 24.3746 26.7228 25.5875 25.65C26.1698 25.0739 26.6261 24.3831 26.9273 23.6213C27.2286 22.8596 27.3683 22.0436 27.3375 21.225V8.77501C27.3778 7.16584 26.7957 5.60316 25.7125 4.41251C25.122 3.85813 24.4258 3.42849 23.6655 3.14929C22.9052 2.87008 22.0964 2.74704 21.2875 2.78751ZM15 7.20001C19.2375 7.20001 22.75 10.7 22.75 14.95C22.75 17.0054 21.9335 18.9767 20.4801 20.4301C19.0267 21.8835 17.0554 22.7 15 22.7C12.9446 22.7 10.9733 21.8835 9.51993 20.4301C8.06652 18.9767 7.25001 17.0054 7.25001 14.95C7.25001 12.8946 8.06652 10.9233 9.51993 9.46993C10.9733 8.01653 12.9446 7.20001 15 7.20001ZM15 9.97501C13.6859 9.98158 12.4275 10.5065 11.4982 11.4358C10.569 12.365 10.0441 13.6234 10.0375 14.9375C10.0441 16.2516 10.569 17.51 11.4982 18.4393C12.4275 19.3685 13.6859 19.8934 15 19.9C16.3141 19.8934 17.5725 19.3685 18.5018 18.4393C19.431 17.51 19.9559 16.2516 19.9625 14.9375C19.9559 13.6234 19.431 12.365 18.5018 11.4358C17.5725 10.5065 16.3141 9.98158 15 9.97501ZM23.05 5.26251C23.5141 5.26251 23.9593 5.44688 24.2874 5.77507C24.6156 6.10326 24.8 6.54838 24.8 7.01251C24.8 7.47664 24.6156 7.92176 24.2874 8.24995C23.9593 8.57814 23.5141 8.76251 23.05 8.76251C22.5859 8.76251 22.1408 8.57814 21.8126 8.24995C21.4844 7.92176 21.3 7.47664 21.3 7.01251C21.3 6.54838 21.4844 6.10326 21.8126 5.77507C22.1408 5.44688 22.5859 5.26251 23.05 5.26251Z" fill="white"/>
</svg>
