<svg width="30" height="27" viewBox="0 0 30 27" fill="none" xmlns="http://www.w3.org/2000/svg">
<path d="M28.375 13.9C29.561 15.3343 30.1387 17.1758 29.9845 19.0306C29.8304 20.8854 28.9566 22.6062 27.55 23.825C26.675 24.575 26.375 25.2 26.925 26.2125C27.025 26.4 27.05 26.6375 27.1 26.8625C26.225 26.475 25.4125 25.8875 24.55 25.8C23.6875 25.7125 22.7875 26.2 21.8875 26.3C20.5874 26.4621 19.2675 26.3343 18.0227 25.9258C16.7778 25.5174 15.6388 24.8383 14.6875 23.9375C10.85 20.3875 11.4 14.9375 15.8375 12.0375C19.7875 9.45001 25.5875 10.3125 28.3625 13.9H28.375ZM19.1125 5.11251C20.1011 6.38138 20.7003 7.90983 20.8375 9.51251C18.0625 9.65001 15.6375 10.5 13.675 12.4C12.6969 13.3116 11.9473 14.4407 11.4869 15.696C11.0265 16.9512 10.8683 18.2972 11.025 19.625C9.93749 19.4875 8.95 19.3375 7.94999 19.25C7.59999 19.225 7.19999 19.2625 6.89999 19.425C5.93749 19.975 5.01249 20.5875 3.89999 21.275C4.11249 20.3625 4.23749 19.5625 4.47499 18.8C4.63749 18.2375 4.56249 17.925 4.03749 17.55C0.699995 15.1875 -0.712505 11.6625 0.349995 8.02501C1.32499 4.65001 3.72499 2.61251 6.97499 1.55001C9.11866 0.841875 11.4272 0.803459 13.5932 1.43987C15.7593 2.07629 17.6801 3.35734 19.1 5.11251H19.1125ZM17.075 15.075C16.4875 15.075 16 15.575 16.025 16.15C16.0532 16.4071 16.1753 16.6448 16.3679 16.8175C16.5605 16.9901 16.8101 17.0856 17.0687 17.0856C17.3274 17.0856 17.577 16.9901 17.7696 16.8175C17.9622 16.6448 18.0843 16.4071 18.1125 16.15C18.1158 16.0111 18.0915 15.8729 18.041 15.7434C17.9905 15.6139 17.9148 15.4958 17.8183 15.3958C17.7218 15.2958 17.6064 15.2159 17.4788 15.1609C17.3512 15.1058 17.214 15.0766 17.075 15.075ZM23.5375 15.075C22.9875 15.075 22.525 15.5125 22.5 16.075C22.475 16.6625 22.9375 17.1375 23.525 17.1375C23.6563 17.1408 23.787 17.1182 23.9096 17.071C24.0322 17.0238 24.1443 16.9529 24.2395 16.8624C24.3347 16.7718 24.4111 16.6634 24.4644 16.5433C24.5177 16.4233 24.5468 16.2938 24.55 16.1625C24.5585 16.0238 24.5387 15.8848 24.4917 15.754C24.4448 15.6231 24.3718 15.5032 24.2771 15.4015C24.1824 15.2998 24.068 15.2184 23.9408 15.1623C23.8137 15.1061 23.6765 15.0764 23.5375 15.075ZM14.7125 7.08751C14.025 7.10001 13.45 7.68751 13.4625 8.35001C13.4657 8.51525 13.5017 8.67821 13.5683 8.82946C13.6349 8.98071 13.7309 9.11725 13.8506 9.23117C13.9704 9.34509 14.1115 9.43414 14.2659 9.49316C14.4202 9.55218 14.5848 9.58 14.75 9.57501C15.45 9.57501 16 9.02501 15.9875 8.32501C15.9859 8.15979 15.9515 7.99652 15.8864 7.84467C15.8213 7.69281 15.7267 7.55536 15.6081 7.44028C15.4896 7.3252 15.3494 7.23477 15.1956 7.17422C15.0419 7.11367 14.8777 7.0842 14.7125 7.08751ZM6.78749 7.08751C6.62229 7.08082 6.45741 7.10698 6.30239 7.16446C6.14736 7.22194 6.00529 7.30961 5.88438 7.42238C5.76347 7.53515 5.66613 7.67078 5.59801 7.82143C5.52988 7.97208 5.49232 8.13474 5.48749 8.30001C5.47499 9.00001 6.01249 9.55001 6.71249 9.57501C7.41249 9.58751 7.99999 9.05001 8.02499 8.37501C8.02525 8.04203 7.89648 7.72191 7.66574 7.48184C7.435 7.24178 7.12022 7.10044 6.78749 7.08751Z" fill="white"/>
</svg>
